<mxfile host="app.diagrams.net" modified="2023-06-09T08:30:48.214Z" agent="Mozilla/5.0 (Macintosh; Intel Mac OS X 10_15_7) AppleWebKit/537.36 (KHTML, like Gecko) Chrome/98.0.4758.102 Safari/537.36 NetType/WIFI MicroMessenger/6.8.0(0x16080000) MacWechat/3.8(0x13080010) XWEB/30515 Flue" version="21.3.7" etag="QoVLCh7ZXPpTqYblS7Kb" type="github">
  <diagram name="第 1 页" id="1-zvTulBJHhwIGBT_bnt">
    <mxGraphModel>
      <root>
        <mxCell id="0" />
        <mxCell id="1" parent="0" />
      </root>
    </mxGraphModel>
  </diagram>
</mxfile>
